# xmcd
#
# Track frame offsets:
# 150
# 12995
# 26898
# 41833
# 53689
# 67251
# 82171
# 95923
# 106345
# 128334
# 144276
# 162738
# 174127
# 187037
# 197568
# 213618
# 227525
# 239684
# 251312
# 263066
#
# Disc length: 3682 seconds
#
#
# Revision: 1
# Processed by: cddbd v1.5.2PL0 Copyright (c) Steve Scherf et al.
# Submitted via: FreeRIP 2.944 
#
DISCID=200e6014
DTITLE=B. B. King - Why I Sing The Blues
DYEAR=1900
DGENRE=
TTITLE0=Hard Working Woman
TTITLE1=She's A Mean Woman
TTITLE2=Questionnaire Blues
TTITLE3=Talkin' The Blues
TTITLE4=Why I Sing The Blues
TTITLE5=Bad Luck
TTITLE6=Dark Is The Night -- Part 1
TTITLE7=I Want To Get Married
TTITLE8=Mean Ole Frisco
TTITLE9=Trouble In Mind
TTITLE10=Blues For Me
TTITLE11=Going Down Slow
TTITLE12=Blues At Sunrise
TTITLE13=Dust My Broom
TTITLE14=It's My Own Fault
TTITLE15=How Blue Can You Get
TTITLE16=Help The Poor
TTITLE17=Night Life
TTITLE18=Don't Answer The Door
TTITLE19=Blind Love
EXTD=
EXTT0=
EXTT1=
EXTT2=
EXTT3=
EXTT4=
EXTT5=
EXTT6=
EXTT7=
EXTT8=
EXTT9=
EXTT10=
EXTT11=
EXTT12=
EXTT13=
EXTT14=
EXTT15=
EXTT16=
EXTT17=
EXTT18=
EXTT19=
PLAYORDER=
